<svg width="200" height="36" viewBox="0 0 200 36" fill="none" xmlns="http://www.w3.org/2000/svg">
<g clip-path="url(#clip0_1639_4889)">
<g clip-path="url(#clip1_1639_4889)">
<path d="M58.1666 14.9799V27.4912H54.615V9.42773H58.6784L64.4716 18.3934L70.2699 9.42773H73.9086V27.4912H70.3569V14.924L64.2464 24.0929L58.1666 14.9799Z" fill="#1A1B1E"/>
<path d="M76.1809 20.7657C76.1809 16.8136 79.1338 13.5982 83.0539 13.5982C83.9636 13.587 84.8663 13.758 85.7078 14.101C86.5494 14.4441 87.3127 14.9521 87.9519 15.5946C88.5912 16.2372 89.0933 17.0011 89.4282 17.8408C89.7632 18.6804 89.9241 19.5784 89.9013 20.4812C89.9098 20.8588 89.8824 21.2364 89.8194 21.6089H79.7376C79.8684 22.5308 80.3379 23.3723 81.0559 23.9714C81.7738 24.5706 82.6896 24.8852 83.6271 24.8548C84.2488 24.8545 84.8641 24.7292 85.4358 24.4865C86.0075 24.2438 86.5238 23.8887 86.9535 23.4427L88.7447 25.7844C87.7212 26.968 85.7867 27.8976 83.4889 27.8976C82.5331 27.9208 81.5825 27.753 80.6934 27.4044C79.8043 27.0557 78.9948 26.5332 78.3131 25.8679C77.6314 25.2027 77.0914 24.4082 76.7251 23.5317C76.3588 22.6552 76.1737 21.7146 76.1809 20.7657ZM79.7888 19.4399H86.3496C85.9556 17.5197 84.7325 16.5343 83.1102 16.5343C81.3804 16.5343 80.1829 17.7178 79.7888 19.4399Z" fill="#1A1B1E"/>
<path d="M105.131 8.10205V27.4914H101.636V26.0233C101.13 26.6219 100.494 27.0998 99.7768 27.4216C99.0593 27.7434 98.278 27.9009 97.4908 27.8825C93.8829 27.8825 90.9556 24.9515 90.9556 20.7709C90.9556 16.7071 93.7089 13.6034 97.4908 13.6034C98.2693 13.5733 99.0448 13.7148 99.7616 14.0179C100.478 14.3209 101.119 14.7779 101.636 15.3559V8.10205H105.131ZM101.636 20.7353C101.636 18.5663 100.132 16.8443 98.0538 16.8443C95.976 16.8443 94.4151 18.5663 94.4151 20.7353C94.4151 22.9044 95.9504 24.6569 98.0538 24.6569C100.157 24.6569 101.636 22.9196 101.636 20.7353Z" fill="#1A1B1E"/>
<path d="M107.885 10.1592C107.849 9.87354 107.875 9.58369 107.961 9.30881C108.047 9.03393 108.191 8.7803 108.383 8.56471C108.575 8.34913 108.811 8.1765 109.076 8.05827C109.34 7.94004 109.626 7.87891 109.916 7.87891C110.206 7.87891 110.493 7.94004 110.757 8.05827C111.022 8.1765 111.258 8.34913 111.45 8.56471C111.642 8.7803 111.786 9.03393 111.872 9.30881C111.957 9.58369 111.984 9.87354 111.948 10.1592C111.887 10.6513 111.647 11.1043 111.273 11.4328C110.898 11.7614 110.416 11.9427 109.916 11.9427C109.417 11.9427 108.935 11.7614 108.56 11.4328C108.186 11.1043 107.946 10.6513 107.885 10.1592ZM111.641 27.4912H108.171V13.9791H111.641V27.4912Z" fill="#1A1B1E"/>
<path d="M124.681 23.6662C124.681 25.952 122.721 27.8976 119.026 27.8976C116.467 27.8976 114.481 26.968 113.314 25.6168L115.249 23.4173C115.743 23.9766 116.356 24.4205 117.044 24.7174C117.731 25.0142 118.476 25.1565 119.225 25.1342C120.561 25.1342 121.242 24.5703 121.242 23.7271C121.242 21.299 113.939 22.4826 113.939 17.6314C113.939 15.5742 115.699 13.5981 119.169 13.5981C121.61 13.5981 123.545 14.416 124.568 15.8281L122.608 17.86C122.203 17.3705 121.689 16.9805 121.106 16.7206C120.524 16.4607 119.889 16.3378 119.251 16.3615C118.059 16.3615 117.347 16.9 117.347 17.6314C117.347 20.0037 124.681 18.622 124.681 23.6662Z" fill="#1A1B1E"/>
<path d="M125.285 13.9944H127.7V10.4995H131.165V13.9944H134.86V17.0422H131.196V22.767C131.196 24.037 131.733 24.6567 132.756 24.6567C133.054 24.6576 133.349 24.5982 133.622 24.482C133.896 24.3658 134.143 24.1954 134.348 23.9811L135.914 26.521C134.893 27.4292 133.559 27.913 132.188 27.8722C129.435 27.8722 127.669 26.1552 127.669 22.8534V17.0422H125.285V13.9944Z" fill="#1A1B1E"/>
<path d="M140.878 27.4915H137.408V13.9794H140.878V15.4474C141.227 14.883 141.715 14.4158 142.296 14.0897C142.877 13.7636 143.532 13.5893 144.2 13.5832C144.987 13.5557 145.759 13.7958 146.39 14.2639L144.937 17.5352C144.424 17.1458 143.796 16.9367 143.15 16.9409C141.758 16.9409 140.878 18.0991 140.878 19.9328V27.4915Z" fill="#1A1B1E"/>
<path d="M145.878 20.7657C145.878 16.8136 148.831 13.5982 152.751 13.5982C153.661 13.587 154.564 13.758 155.405 14.101C156.247 14.4441 157.01 14.9521 157.649 15.5946C158.288 16.2372 158.791 17.0011 159.125 17.8408C159.46 18.6804 159.621 19.5784 159.599 20.4812C159.607 20.8588 159.58 21.2364 159.517 21.6089H149.43C149.561 22.5308 150.03 23.3723 150.748 23.9714C151.466 24.5706 152.382 24.8852 153.319 24.8548C153.941 24.8545 154.556 24.7292 155.128 24.4865C155.7 24.2438 156.216 23.8887 156.646 23.4427L158.437 25.7844C157.413 26.968 155.479 27.8976 153.181 27.8976C152.226 27.9201 151.276 27.7518 150.387 27.4029C149.499 27.0539 148.69 26.5313 148.009 25.8661C147.327 25.2009 146.788 24.4066 146.422 23.5305C146.056 22.6543 145.871 21.7141 145.878 20.7657ZM149.486 19.4399H156.047C155.653 17.5197 154.43 16.5343 152.807 16.5343C151.078 16.5343 149.88 17.7178 149.486 19.4399Z" fill="#1A1B1E"/>
<path d="M171.344 26.0382C170.837 26.6368 170.202 27.1147 169.484 27.4365C168.767 27.7583 167.986 27.9159 167.198 27.8974C163.59 27.8974 160.663 24.9664 160.663 20.7858C160.663 16.722 163.416 13.6183 167.198 13.6183C167.977 13.5879 168.753 13.7292 169.469 14.0323C170.186 14.3353 170.826 14.7925 171.344 15.3708V14.0145H174.839V27.491H171.344V26.0382ZM171.344 20.735C171.344 18.566 169.839 16.8439 167.761 16.8439C165.684 16.8439 164.123 18.566 164.123 20.735C164.123 22.904 165.658 24.6566 167.761 24.6566C169.865 24.6566 171.344 22.9193 171.344 20.735Z" fill="#1A1B1E"/>
<path d="M181.338 27.491H177.869V13.9789H181.338V15.4165C181.767 14.8329 182.332 14.3612 182.984 14.0419C183.637 13.7225 184.357 13.5649 185.085 13.5827C185.973 13.5394 186.856 13.7505 187.627 14.1909C188.398 14.6313 189.026 15.2824 189.435 16.0667C189.864 15.301 190.496 14.6655 191.261 14.228C192.026 13.7906 192.896 13.5675 193.779 13.5827C196.937 13.5827 199.01 15.7009 199.01 19.3075V27.491H195.545V19.8308C195.545 17.997 194.491 16.8439 192.874 16.8439C191.256 16.8439 190.171 17.997 190.171 19.8308V27.491H186.697V19.8308C186.697 17.997 185.673 16.8439 184.025 16.8439C182.377 16.8439 181.328 17.997 181.328 19.8308L181.338 27.491Z" fill="#1A1B1E"/>
</g>
<g clip-path="url(#clip2_1639_4889)">
<path d="M27.3481 15.7369V7.24362C27.3486 6.75252 27.2148 6.27049 26.9609 5.84897C26.707 5.42745 26.3426 5.08225 25.9065 4.8502C25.4705 4.61814 24.9792 4.50795 24.485 4.53136C23.9908 4.55478 23.5122 4.71092 23.1004 4.98314L13.6788 11.2363V2.71759C13.6784 2.22692 13.5439 1.74555 13.2896 1.32475C13.0354 0.903956 12.6709 0.55949 12.235 0.328046C11.7992 0.0966016 11.3082 -0.0131522 10.8144 0.0104702C10.3207 0.0340926 9.8426 0.190207 9.43116 0.462189L1.24292 5.88733C0.869153 6.13615 0.562942 6.47259 0.351388 6.86686C0.139834 7.26114 0.0294604 7.7011 0.0300315 8.14781V24.2353C0.0295261 24.7264 0.16335 25.2084 0.417225 25.6299C0.671101 26.0515 1.0355 26.3967 1.47155 26.6287C1.9076 26.8608 2.39894 26.971 2.89315 26.9476C3.38735 26.9241 3.86589 26.768 4.27769 26.4958L13.6942 20.263V28.7563C13.6948 29.2475 13.8295 29.7293 14.084 30.1506C14.3385 30.5719 14.7033 30.9168 15.1396 31.1487C15.5759 31.3806 16.0673 31.4908 16.5616 31.4675C17.056 31.4443 17.5347 31.2885 17.9469 31.0167L27.3634 24.7839V33.2823C27.3632 33.7738 27.4976 34.2561 27.7521 34.6776C28.0066 35.0992 28.3717 35.4442 28.8084 35.6759C29.2451 35.9075 29.737 36.0169 30.2316 35.9926C30.7261 35.9683 31.2047 35.811 31.6162 35.5377L39.8044 30.1125C40.1795 29.8646 40.4869 29.5285 40.6994 29.1341C40.9119 28.7397 41.0229 28.2993 41.0224 27.8521V11.7443C41.023 11.2532 40.8891 10.7711 40.6353 10.3496C40.3814 9.92809 40.017 9.58289 39.5809 9.35083C39.1449 9.11878 38.6535 9.00858 38.1593 9.03199C37.6651 9.05541 37.1866 9.21156 36.7748 9.48378L27.3481 15.7369Z" fill="#1D77FF"/>
<path d="M4.79954 22.9705L13.6787 11.2363V20.2833L6.65213 24.9313C6.38279 25.1217 6.053 25.2087 5.72394 25.1762C5.39488 25.1437 5.08886 24.9938 4.86264 24.7544C4.63643 24.515 4.50537 24.2022 4.49376 23.8742C4.48216 23.5462 4.5908 23.2251 4.79954 22.9705Z" fill="url(#paint0_linear_1639_4889)"/>
<path d="M18.4689 27.4913L27.348 15.7368V24.7838L20.3215 29.4368C20.053 29.6172 19.7287 29.697 19.4065 29.662C19.0842 29.6269 18.785 29.4792 18.5623 29.2454C18.3397 29.0115 18.208 28.7067 18.1909 28.3854C18.1738 28.0641 18.2723 27.7472 18.4689 27.4913Z" fill="url(#paint1_linear_1639_4889)"/>
</g>
</g>
<defs>
<linearGradient id="paint0_linear_1639_4889" x1="6.81078" y1="24.8297" x2="15.8438" y2="12.6957" gradientUnits="userSpaceOnUse">
<stop stop-color="#0079FF"/>
<stop offset="0.16" stop-color="#0074F6"/>
<stop offset="0.43" stop-color="#0066DE"/>
<stop offset="0.76" stop-color="#004FB6"/>
<stop offset="1" stop-color="#003C96"/>
</linearGradient>
<linearGradient id="paint1_linear_1639_4889" x1="20.5001" y1="29.3172" x2="29.5295" y2="17.2117" gradientUnits="userSpaceOnUse">
<stop stop-color="#0079FF"/>
<stop offset="0.16" stop-color="#0074F6"/>
<stop offset="0.43" stop-color="#0066DE"/>
<stop offset="0.76" stop-color="#004FB6"/>
<stop offset="1" stop-color="#003C96"/>
</linearGradient>
<clipPath id="clip0_1639_4889">
<rect width="199.016" height="36" fill="white" transform="translate(0.0146484)"/>
</clipPath>
<clipPath id="clip1_1639_4889">
<rect width="144.395" height="20.0208" fill="white" transform="translate(54.615 7.87891)"/>
</clipPath>
<clipPath id="clip2_1639_4889">
<rect width="40.9924" height="35.9886" fill="white" transform="translate(0.0300293 0.00732422)"/>
</clipPath>
</defs>
</svg>
